<svg width="250" height="250" viewBox="0 0 250 250" fill="none" xmlns="http://www.w3.org/2000/svg">
<path d="M121.55 0C97.7145 18.6796 71.3201 46.296 66.9708 75.2966C67.6872 78.5899 70.7573 100.662 70.382 103.438C79.7714 106.929 96.7423 117.288 104.494 123.213L116.434 147.551C120.084 143.413 107.172 47.5053 125.38 56.2367C133.464 57.8339 125.832 146.053 128.373 150.608C134.829 144.174 146.683 130.354 150.537 122.452C158.289 115.949 170.212 106.663 180.386 103.438C188.427 62.77 151.731 26.1637 121.542 0L121.55 0Z" fill="#4CAF50"/>
<path d="M135.119 220.908L149.693 190.904C162.553 184.682 204.511 127.282 219.623 147.551C190.994 168.193 158.127 196.319 146.29 228.286L144.295 248.479C159.935 243.102 194.184 230.263 206.84 220.566C220.578 213.591 238.12 189.428 245.216 177.213C252.908 158.8 250.358 122.794 244.363 104.198L207.701 107.241C150.298 121.981 121.38 169.661 135.136 220.908H135.119Z" fill="#4CAF50"/>
<path d="M114.881 222.429L100.307 192.425C87.4467 186.203 45.4886 128.803 30.3769 149.072C59.0056 169.714 91.8727 197.84 103.71 229.807L105.705 250C90.0648 244.623 55.8161 231.784 43.1605 222.087C29.4217 215.113 11.8795 190.949 4.78417 178.734C-2.90815 160.321 -0.358254 124.315 5.63697 105.719L42.2991 108.762C99.7015 123.502 128.62 171.182 114.864 222.429H114.881Z" fill="#4CAF50"/>
</svg>
