<svg width="1061" height="250" viewBox="0 0 1061 250" fill="none" xmlns="http://www.w3.org/2000/svg">
<path d="M121.55 0C97.7145 18.6796 71.3201 46.296 66.9708 75.2966C67.6872 78.5899 70.7573 100.662 70.382 103.438C79.7714 106.929 96.7423 117.288 104.494 123.213L116.434 147.551C120.084 143.413 107.172 47.5053 125.38 56.2367C133.464 57.8339 125.832 146.053 128.373 150.608C134.829 144.174 146.683 130.354 150.537 122.452C158.289 115.949 170.212 106.663 180.386 103.438C188.427 62.77 151.731 26.1637 121.542 0L121.55 0Z" fill="#4CAF50"/>
<path d="M135.119 220.908L149.693 190.904C162.553 184.682 204.511 127.282 219.623 147.551C190.994 168.193 158.127 196.319 146.29 228.286L144.295 248.479C159.935 243.102 194.184 230.263 206.84 220.566C220.578 213.591 238.12 189.428 245.216 177.213C252.908 158.8 250.358 122.794 244.363 104.198L207.701 107.241C150.298 121.981 121.38 169.661 135.136 220.908H135.119Z" fill="#4CAF50"/>
<path d="M114.881 222.429L100.307 192.425C87.4467 186.203 45.4886 128.803 30.3769 149.072C59.0056 169.714 91.8727 197.84 103.71 229.807L105.705 250C90.0648 244.623 55.8161 231.784 43.1605 222.087C29.4217 215.113 11.8795 190.949 4.78417 178.734C-2.90815 160.321 -0.358254 124.315 5.63697 105.719L42.2991 108.762C99.7015 123.502 128.62 171.182 114.864 222.429H114.881Z" fill="#4CAF50"/>
<path d="M335.568 171L374.736 81.4H404.432L443.6 171H412.368L383.44 95.736H395.216L366.288 171H335.568ZM358.864 155.384L366.544 133.624H407.76L415.44 155.384H358.864ZM482.484 197.112C475.572 197.112 469.087 196.387 463.028 194.936C456.969 193.485 451.764 191.309 447.412 188.408L457.14 168.696C459.871 170.829 463.327 172.493 467.508 173.688C471.775 174.968 475.785 175.608 479.54 175.608C485.513 175.608 489.78 174.328 492.34 171.768C494.9 169.293 496.18 165.709 496.18 161.016V155.128L497.46 133.368L497.588 111.608V100.984H525.108V157.048C525.108 170.616 521.353 180.685 513.844 187.256C506.335 193.827 495.881 197.112 482.484 197.112ZM476.852 167.16C470.964 167.16 465.46 165.795 460.34 163.064C455.22 160.248 451.081 156.323 447.924 151.288C444.767 146.253 443.188 140.28 443.188 133.368C443.188 126.456 444.767 120.483 447.924 115.448C451.081 110.413 455.22 106.531 460.34 103.8C465.46 101.069 470.964 99.704 476.852 99.704C482.911 99.704 487.86 100.899 491.7 103.288C495.625 105.677 498.527 109.389 500.404 114.424C502.281 119.373 503.22 125.688 503.22 133.368C503.22 141.048 502.281 147.405 500.404 152.44C498.527 157.389 495.625 161.101 491.7 163.576C487.86 165.965 482.911 167.16 476.852 167.16ZM484.532 144.632C486.836 144.632 488.884 144.163 490.676 143.224C492.468 142.285 493.876 140.963 494.9 139.256C495.924 137.549 496.436 135.587 496.436 133.368C496.436 131.064 495.924 129.101 494.9 127.48C493.876 125.773 492.468 124.493 490.676 123.64C488.884 122.701 486.836 122.232 484.532 122.232C482.313 122.232 480.265 122.701 478.388 123.64C476.596 124.493 475.145 125.773 474.036 127.48C473.012 129.101 472.5 131.064 472.5 133.368C472.5 135.587 473.012 137.549 474.036 139.256C475.145 140.963 476.596 142.285 478.388 143.224C480.265 144.163 482.313 144.632 484.532 144.632ZM537.9 171V100.984H565.42V122.104L560.94 116.088C563.073 110.627 566.487 106.531 571.18 103.8C575.873 101.069 581.505 99.704 588.076 99.704V125.304C586.796 125.133 585.644 125.005 584.62 124.92C583.681 124.835 582.7 124.792 581.676 124.792C577.324 124.792 573.74 125.944 570.924 128.248C568.193 130.467 566.828 134.349 566.828 139.896V171H537.9ZM596.275 171V100.984H625.203V171H596.275ZM610.739 95.352C605.448 95.352 601.224 93.944 598.067 91.128C594.91 88.312 593.331 84.8133 593.331 80.632C593.331 76.4507 594.91 72.952 598.067 70.136C601.224 67.32 605.448 65.912 610.739 65.912C616.03 65.912 620.254 67.2347 623.411 69.88C626.568 72.5253 628.147 75.9387 628.147 80.12C628.147 84.5573 626.568 88.2267 623.411 91.128C620.254 93.944 616.03 95.352 610.739 95.352Z" fill="#282E32"/>
<path d="M696.752 171V104.824H670.512V81.4H753.2V104.824H726.96V171H696.752ZM758.9 171V100.984H786.42V122.104L781.94 116.088C784.073 110.627 787.487 106.531 792.18 103.8C796.873 101.069 802.505 99.704 809.076 99.704V125.304C807.796 125.133 806.644 125.005 805.62 124.92C804.681 124.835 803.7 124.792 802.676 124.792C798.324 124.792 794.74 125.944 791.924 128.248C789.193 130.467 787.828 134.349 787.828 139.896V171H758.9ZM855.768 171V158.584L853.72 155.256V131.704C853.72 128.291 852.653 125.688 850.52 123.896C848.472 122.104 845.101 121.208 840.408 121.208C837.251 121.208 834.051 121.72 830.808 122.744C827.565 123.683 824.792 125.005 822.488 126.712L813.272 107.64C817.368 105.08 822.275 103.117 827.992 101.752C833.709 100.387 839.299 99.704 844.76 99.704C856.792 99.704 866.093 102.392 872.664 107.768C879.32 113.144 882.648 121.677 882.648 133.368V171H855.768ZM835.928 172.28C830.211 172.28 825.432 171.299 821.592 169.336C817.752 167.373 814.851 164.771 812.888 161.528C810.925 158.2 809.944 154.531 809.944 150.52C809.944 145.997 811.096 142.157 813.4 139C815.704 135.843 819.203 133.453 823.896 131.832C828.675 130.211 834.691 129.4 841.944 129.4H856.536V143.352H846.552C843.48 143.352 841.219 143.864 839.768 144.888C838.403 145.827 837.72 147.277 837.72 149.24C837.72 150.861 838.317 152.227 839.512 153.336C840.792 154.36 842.499 154.872 844.632 154.872C846.595 154.872 848.387 154.36 850.008 153.336C851.715 152.227 852.952 150.52 853.72 148.216L857.432 156.792C856.323 161.997 853.976 165.88 850.392 168.44C846.808 171 841.987 172.28 835.928 172.28ZM934.032 172.28C926.011 172.28 918.885 170.744 912.656 167.672C906.427 164.6 901.52 160.333 897.936 154.872C894.437 149.325 892.688 143.011 892.688 135.928C892.688 128.845 894.437 122.573 897.936 117.112C901.52 111.651 906.427 107.384 912.656 104.312C918.885 101.24 926.011 99.704 934.032 99.704C942.565 99.704 949.861 101.539 955.92 105.208C961.979 108.877 966.16 113.955 968.464 120.44L946.064 131.448C944.613 128.205 942.821 125.859 940.688 124.408C938.64 122.957 936.379 122.232 933.904 122.232C931.771 122.232 929.765 122.744 927.888 123.768C926.096 124.792 924.645 126.328 923.536 128.376C922.512 130.339 922 132.856 922 135.928C922 139 922.512 141.56 923.536 143.608C924.645 145.656 926.096 147.192 927.888 148.216C929.765 149.24 931.771 149.752 933.904 149.752C936.379 149.752 938.64 149.027 940.688 147.576C942.821 146.125 944.613 143.779 946.064 140.536L968.464 151.544C966.16 158.029 961.979 163.107 955.92 166.776C949.861 170.445 942.565 172.28 934.032 172.28ZM999.342 159.48L999.982 125.432L1024.17 100.984H1058.35L1026.35 134.52L1011.89 146.168L999.342 159.48ZM975.15 171V76.024H1004.08V171H975.15ZM1025.71 171L1006.51 146.68L1024.3 124.792L1060.65 171H1025.71Z" fill="#4CAF50"/>
</svg>
